<mxfile host="Electron" modified="2024-01-10T09:02:04.163Z" agent="Mozilla/5.0 (Windows NT 10.0; Win64; x64) AppleWebKit/537.36 (KHTML, like Gecko) draw.io/21.3.7 Chrome/112.0.5615.204 Electron/24.5.0 Safari/537.36" etag="KDyQJbEufLvoDtwDHzha" version="21.3.7" type="device">
  <diagram id="UFKyPsE8ox6_t6vFH-kr" name="Seite-1">
    <mxGraphModel dx="782" dy="496" grid="1" gridSize="10" guides="1" tooltips="1" connect="1" arrows="1" fold="1" page="1" pageScale="1" pageWidth="1654" pageHeight="1169" math="0" shadow="0">
      <root>
        <mxCell id="0" />
        <mxCell id="1" parent="0" />
        <mxCell id="AfluPnDhN3ySQKmKgDzS-27" value="1" style="whiteSpace=wrap;html=1;aspect=fixed;strokeWidth=3;fontSize=28;fontStyle=1;fillColor=#d5e8d4;strokeColor=#82b366;" parent="1" vertex="1">
          <mxGeometry x="400" y="290" width="50" height="50" as="geometry" />
        </mxCell>
        <mxCell id="AfluPnDhN3ySQKmKgDzS-28" value="1" style="whiteSpace=wrap;html=1;aspect=fixed;strokeWidth=3;fontSize=28;fontStyle=1;fillColor=#d5e8d4;strokeColor=#82b366;" parent="1" vertex="1">
          <mxGeometry x="400" y="340" width="50" height="50" as="geometry" />
        </mxCell>
        <mxCell id="AfluPnDhN3ySQKmKgDzS-29" value="1" style="whiteSpace=wrap;html=1;aspect=fixed;strokeWidth=3;fontSize=28;fontStyle=1;fillColor=#d5e8d4;strokeColor=#82b366;" parent="1" vertex="1">
          <mxGeometry x="400" y="390" width="50" height="50" as="geometry" />
        </mxCell>
        <mxCell id="AfluPnDhN3ySQKmKgDzS-30" value="1" style="whiteSpace=wrap;html=1;aspect=fixed;strokeWidth=3;fontSize=28;fontStyle=1;fillColor=#d5e8d4;strokeColor=#82b366;" parent="1" vertex="1">
          <mxGeometry x="450" y="340" width="50" height="50" as="geometry" />
        </mxCell>
        <mxCell id="AfluPnDhN3ySQKmKgDzS-31" value="0" style="whiteSpace=wrap;html=1;aspect=fixed;strokeWidth=3;fontSize=28;fontStyle=1;fillColor=#f8cecc;strokeColor=#b85450;" parent="1" vertex="1">
          <mxGeometry x="450" y="290" width="50" height="50" as="geometry" />
        </mxCell>
        <mxCell id="AfluPnDhN3ySQKmKgDzS-32" value="?" style="whiteSpace=wrap;html=1;aspect=fixed;strokeWidth=3;fontSize=28;fontStyle=1;fillColor=#e1d5e7;strokeColor=#9673a6;" parent="1" vertex="1">
          <mxGeometry x="450" y="390" width="50" height="50" as="geometry" />
        </mxCell>
        <mxCell id="AfluPnDhN3ySQKmKgDzS-34" value="TST_01_HZG_01_CHP&lt;br&gt;" style="text;whiteSpace=wrap;html=1;fontSize=28;spacing=2;spacingBottom=-1;spacingTop=1;" parent="1" vertex="1">
          <mxGeometry x="90" y="290" width="310" height="120" as="geometry" />
        </mxCell>
        <mxCell id="AfluPnDhN3ySQKmKgDzS-35" value="&lt;span style=&quot;color: rgb(0, 0, 0); font-family: Helvetica; font-size: 28px; font-style: normal; font-variant-ligatures: normal; font-variant-caps: normal; font-weight: 400; letter-spacing: normal; orphans: 2; text-align: left; text-indent: 0px; text-transform: none; widows: 2; word-spacing: 0px; -webkit-text-stroke-width: 0px; background-color: rgb(248, 249, 250); text-decoration-thickness: initial; text-decoration-style: initial; text-decoration-color: initial; float: none; display: inline !important;&quot;&gt;TST_01_HZG_01_HTP&lt;/span&gt;&lt;br style=&quot;color: rgb(0, 0, 0); font-family: Helvetica; font-size: 28px; font-style: normal; font-variant-ligatures: normal; font-variant-caps: normal; font-weight: 400; letter-spacing: normal; orphans: 2; text-align: left; text-indent: 0px; text-transform: none; widows: 2; word-spacing: 0px; -webkit-text-stroke-width: 0px; background-color: rgb(248, 249, 250); text-decoration-thickness: initial; text-decoration-style: initial; text-decoration-color: initial;&quot;&gt;" style="text;whiteSpace=wrap;html=1;fontSize=28;rotation=0;" parent="1" vertex="1">
          <mxGeometry x="90" y="340" width="330" height="60" as="geometry" />
        </mxCell>
        <mxCell id="AfluPnDhN3ySQKmKgDzS-36" value="&lt;span style=&quot;color: rgb(0, 0, 0); font-family: Helvetica; font-size: 28px; font-style: normal; font-variant-ligatures: normal; font-variant-caps: normal; font-weight: 400; letter-spacing: normal; orphans: 2; text-align: left; text-indent: 0px; text-transform: none; widows: 2; word-spacing: 0px; -webkit-text-stroke-width: 0px; background-color: rgb(248, 249, 250); text-decoration-thickness: initial; text-decoration-style: initial; text-decoration-color: initial; float: none; display: inline !important;&quot;&gt;TST_01_HZG_01_BFT&lt;/span&gt;" style="text;whiteSpace=wrap;html=1;fontSize=28;" parent="1" vertex="1">
          <mxGeometry x="90" y="390" width="320" height="60" as="geometry" />
        </mxCell>
        <mxCell id="AfluPnDhN3ySQKmKgDzS-40" value="&lt;span style=&quot;color: rgb(0, 0, 0); font-size: 28px; font-style: normal; font-variant-ligatures: normal; font-variant-caps: normal; font-weight: 400; letter-spacing: normal; orphans: 2; text-align: left; text-indent: 0px; text-transform: none; widows: 2; word-spacing: 0px; -webkit-text-stroke-width: 0px; background-color: rgb(248, 249, 250); text-decoration-thickness: initial; text-decoration-style: initial; text-decoration-color: initial; float: none; display: inline !important;&quot;&gt;TST_01_HZG_01_DEM&lt;/span&gt;" style="text;whiteSpace=wrap;html=1;fontSize=28;rotation=-35;" parent="1" vertex="1">
          <mxGeometry x="380" y="160" width="320" height="60" as="geometry" />
        </mxCell>
        <mxCell id="AfluPnDhN3ySQKmKgDzS-41" value="&lt;span style=&quot;color: rgb(0, 0, 0); font-size: 28px; font-style: normal; font-variant-ligatures: normal; font-variant-caps: normal; font-weight: 400; letter-spacing: normal; orphans: 2; text-align: left; text-indent: 0px; text-transform: none; widows: 2; word-spacing: 0px; -webkit-text-stroke-width: 0px; background-color: rgb(248, 249, 250); text-decoration-thickness: initial; text-decoration-style: initial; text-decoration-color: initial; float: none; display: inline !important;&quot;&gt;TST_01_HZG_01_BFT&lt;/span&gt;" style="text;whiteSpace=wrap;html=1;fontSize=28;rotation=-35;" parent="1" vertex="1">
          <mxGeometry x="450" y="160" width="320" height="60" as="geometry" />
        </mxCell>
        <mxCell id="AfluPnDhN3ySQKmKgDzS-44" value="0" style="whiteSpace=wrap;html=1;aspect=fixed;strokeWidth=3;fontSize=28;fontStyle=1;fillColor=#f8cecc;strokeColor=#b85450;" parent="1" vertex="1">
          <mxGeometry x="640" y="350" width="40" height="40" as="geometry" />
        </mxCell>
        <mxCell id="AfluPnDhN3ySQKmKgDzS-45" value="1" style="whiteSpace=wrap;html=1;aspect=fixed;strokeWidth=3;fontSize=28;fontStyle=1;fillColor=#d5e8d4;strokeColor=#82b366;" parent="1" vertex="1">
          <mxGeometry x="640" y="400" width="40" height="40" as="geometry" />
        </mxCell>
        <mxCell id="AfluPnDhN3ySQKmKgDzS-47" value="energy flow is not allowed" style="text;html=1;align=center;verticalAlign=middle;resizable=0;points=[];autosize=1;strokeColor=none;fillColor=none;fontSize=23;fontFamily=Helvetica;" parent="1" vertex="1">
          <mxGeometry x="680" y="350" width="290" height="40" as="geometry" />
        </mxCell>
        <mxCell id="AfluPnDhN3ySQKmKgDzS-48" value="energy flow is allowed" style="text;html=1;align=center;verticalAlign=middle;resizable=0;points=[];autosize=1;strokeColor=none;fillColor=none;fontSize=23;fontFamily=Helvetica;" parent="1" vertex="1">
          <mxGeometry x="680" y="400" width="250" height="40" as="geometry" />
        </mxCell>
        <mxCell id="AfluPnDhN3ySQKmKgDzS-49" value="Inputs" style="text;html=1;align=center;verticalAlign=middle;resizable=0;points=[];autosize=1;strokeColor=none;fillColor=none;fontSize=28;fontFamily=Helvetica;" parent="1" vertex="1">
          <mxGeometry x="190" y="220" width="100" height="50" as="geometry" />
        </mxCell>
        <mxCell id="AfluPnDhN3ySQKmKgDzS-50" value="Outputs" style="text;html=1;align=center;verticalAlign=middle;resizable=0;points=[];autosize=1;strokeColor=none;fillColor=none;fontSize=28;fontFamily=Helvetica;" parent="1" vertex="1">
          <mxGeometry x="310" y="140" width="120" height="50" as="geometry" />
        </mxCell>
        <mxCell id="DGySjP2ImECEKqbaZ39I-1" value="?" style="whiteSpace=wrap;html=1;aspect=fixed;strokeWidth=3;fontSize=28;fontStyle=1;fillColor=#e1d5e7;strokeColor=#9673a6;" parent="1" vertex="1">
          <mxGeometry x="640" y="300" width="40" height="40" as="geometry" />
        </mxCell>
        <mxCell id="DGySjP2ImECEKqbaZ39I-2" value="not considered (storage can&#39;t load itself)" style="text;html=1;align=center;verticalAlign=middle;resizable=0;points=[];autosize=1;strokeColor=none;fillColor=none;fontSize=23;fontFamily=Helvetica;" parent="1" vertex="1">
          <mxGeometry x="680" y="300" width="430" height="40" as="geometry" />
        </mxCell>
      </root>
    </mxGraphModel>
  </diagram>
</mxfile>
